# xmcd
# Track frame offsets:
# 150
# 10640
# 22427
# 32840
# 44765
# 60660
# 74737
# 90496
# 105082
# 116699
# 129264
# 143596
# 161349
# 174222
# 188780
# 198376
# 213206
# 227765
#
# Disc length: 3216 seconds
# Revision: 0
# Processed by: cddbd v1.4PL0 Copyright (c) Steve Scherf et al.
# Submitted via: VisiTrax 2.9.5.180 - For more info visit www.synapsa.com
#
DISCID=ef0c8e12
DTITLE=Various Artist - Country Complete  Volume 2 Disc 3
DYEAR=2001
DGENRE=
TTITLE0=Susan Raye - Whatcha Gonna Do With A Dog Like That
TTITLE1=Billy "Crash" Craddock - I Cheated On A Good Woman's Love
TTITLE2=Jesse Colter - What's Happened To Blue Eyes
TTITLE3=Johnny Paycheck - Take This Job And Shove It
TTITLE4=Crystal Gayle - I'll Get Over You
TTITLE5=Glen Campbell - She Still Thinks I Care
TTITLE6=Charley Pride - You're My Jamaica
TTITLE7=Bellamy Brothers - Dancin' Cowboys
TTITLE8=Marty Robbins - Among My Souvenirs
TTITLE9=Dolly Parton - Please Don't Stop Loving Me
TTITLE10=Charlie Rich - On My Knees
TTITLE11=Billy Swan - I Can Help
TTITLE12=Kenny Dale - Only Love Can Break A Heart
TTITLE13=Asleep At The Wheel - Letter That Johnny Walker Read
TTITLE14=Waylon Jennings - Theme From Dukes Of Hazzard (Good Ol' Boys)
TTITLE15=George Jones - He Stopped Loving Her Today
TTITLE16=Juice Newton - Love's Been A Little Bit Hard On Me
TTITLE17=Mel McDaniel - Baby's Got Her Blue Jeans On
EXTD=EMI Australia
EXTT0=
EXTT1=
EXTT2=
EXTT3=
EXTT4=
EXTT5=
EXTT6=
EXTT7=
EXTT8=
EXTT9=
EXTT10=
EXTT11=
EXTT12=
EXTT13=
EXTT14=
EXTT15=
EXTT16=
EXTT17=
PLAYORDER=
